<svg version="1.2" xmlns="http://www.w3.org/2000/svg" viewBox="0 0 24 24"><path fill="currentColor" fill-rule="evenodd" d="M12 0c1.58 0 3.14.31 4.59.91 1.46.61 2.78 1.49 3.9 2.6 1.11 1.12 1.99 2.44 2.6 3.9a12.004 12.004 0 0 1-6.5 15.68c-4.48 1.85-9.64.83-13.08-2.6C.08 17.05-.94 11.89.91 7.41 2.77 2.92 7.15 0 12 0Zm-1.48 12.89c0 .4.16.77.44 1.05a1.475 1.475 0 0 0 2.1 0c.28-.28.44-.65.45-1.05L13.5 6c0-.4-.16-.77-.44-1.05a1.475 1.475 0 0 0-2.1 0c-.28.28-.44.65-.45 1.05l.01 6.89Zm2.14 6.48c.21-.09.4-.21.56-.37.16-.16.28-.35.37-.56a1.723 1.723 0 0 0-2.81-1.88 1.723 1.723 0 0 0 1.88 2.81Z"/></svg>
